<svg xmlns="http://www.w3.org/2000/svg" width="140" height="37" fill="none" viewBox="0 0 140 37"><g clip-path="url(#a)"><path fill="#83b3d3" d="m9 10 2.1 6.5H18l-5.6 4 2.2 6.5L9 23l-5.6 4 2.2-6.5-5.6-4h6.9z"/></g><g clip-path="url(#b)"><path fill="#83b3d3" d="m33 10 2.1 6.5H42l-5.6 4 2.2 6.5-5.6-4-5.6 4 2.2-6.5-5.6-4h6.9z"/></g><g clip-path="url(#c)"><path fill="#83b3d3" d="m57 10 2.1 6.5H66l-5.6 4 2.2 6.5-5.6-4-5.6 4 2.2-6.5-5.6-4h6.9z"/></g><g clip-path="url(#d)"><path fill="#83b3d3" d="m81 10 2.1 6.5H90l-5.6 4 2.2 6.5-5.6-4-5.6 4 2.2-6.5-5.6-4h6.9z"/></g><defs><clipPath id="a"><path fill="#fff" d="M0 10h18v17H0z"/></clipPath><clipPath id="b"><path fill="#fff" d="M24 10h18v17H24z"/></clipPath><clipPath id="c"><path fill="#fff" d="M48 10h18v17H48z"/></clipPath><clipPath id="d"><path fill="#fff" d="M72 10h18v17H72z"/></clipPath></defs></svg>