<svg xmlns="http://www.w3.org/2000/svg" width="140" height="70" fill="none" viewBox="0 0 140 70"><g clip-path="url(#a)"><path fill="#81b3d3" d="M140 0H0l60.4 65.7c5.2 5.8 14 5.8 19.2 0z"/><path fill="#23a9e1" d="m37.2.5 32.6 37.9L102.3.7z"/><path fill="#fff" d="M62 14.7h17.5c-1.3-.8-4.4-4.6-6-3.2-.2.1-5-5.7-8.2-2.9-2.7 2.5-4-.3-7 1.6-3.7 2.4 2 3.7 3.7 4.5m27-3.5-9.9.1c4-4.5 5.7-4 10-.1"/><path fill="#491213" d="M99 3.6V1.2h2.1zM49.1 13c.1.1 2.4-2.4 6.2-4.9 3.4-2.3 8.7-4.9 14.6-4.9s11.3 2.7 14.7 5c3.8 2.4 6.1 4.8 6.2 4.9l-2.5 3c-4.6.6-7.9 3.9-12.3 3.2-2.2-.4-2.3-1.6-3-2.9-.5-1-1.3-.8-2.3-1.2s-1.5-1.1-3.4-.7c-1.7.4-1.9 2.9-4 2.8-1.1-.1-1.2-1.6-2.8-3.6-4.2-4.9-8-4.3-10.6.2zM40.6 1.2v1.9L39 1.2zm54.7 0h3.2v3L95.3 8zM91 12.6V1.2h3.6v7.4zm-.5-10.4v9.9a26 26 0 0 0-3.7-3zm-4.2-.3v6.8l-1.5-1-2.2-1.3zM82 1.7V6l-3.2-1.5zm.6-.5h3.7l-3.7 4.6zm4.3 0h3.7l-3.7 7.1zm-8.9 0h4l-3.6 3.1-.3-.1zm-.5.4V4q-1.5-.6-3.1-.9zm-4.3 0v1.3L71 2.6zm-6.9 0 2.3 1-2.3.3zm-4.1 0 3.1 1.5q-1.5.3-3.1.9zm3.6 1.2-3.3-1.6h3.3zm3.6-.4-2.8-1.3h2.8zm.7-1.2h3l-3 1.3zm3.8 0H77l-3.2 1.6zM61.3 4.3l-3.6-3.1h4v3zm-3.7-2.6 3.2 2.7-3.2 1.5zm-4.3.2 3.6 4.5q-2 1-3.6 2.4zm-4.3.3 3.7 7q-2 1.4-3.7 3.2zm3.8 6L49 1.1h3.7zM57 5.7l-3.7-4.6H57zM44.3 7.5l-3.2-3.8V1.2h3.2zm.6-6.3h3.6v11.2l-3.6-4.2zM36.5 0v14.6L70 54.5 103.5 15V0z"/><path fill="#23a9e1" d="m67.4 46 2.6-4.2 2.6 4.2-2.6 4.2z"/><path fill="#dc6243" d="M75.3 30.6c-3.5-2-2.7-3.5.2-4.9 1.5-.7 4.8-3.4 6.2-2.5zm-2.4 2.5c-2-.1-4.3-.4-6.3.1 1.2.3 4.2 1.2 1.4 1.9 1 1.4 2.6 1.3 3.6.1l-1-.7q1.8-.5 2.3-1.4m1.3-1.6q-1.5-1.2-2.8 0c-1.2-2.1-5.5-1.4-7.5-1.7 1.1 2.6 9.8 3.1 10.3 1.7m-7-2.2c-1.6-.5-6.8-.4-3.4-1.8 1.1-.4 6.8.1 3.5 1.8m2-3c-.4-1.1.5-2.4 1.8-1.4 1.2.8-.6 2-1.7 1.4m-2.9.1c-2.3.7-5.3-.8-1.6-1.5 2.4-.5 4.8.5 1.6 1.5m-2.6-6.2c-.5 1.6-1.5 1.9-1.4 0 0-2.3 1.6-1.7 3.2-2.6 1.4-.7 2-3.4 4.4-1.8 1 .7 2.2.1 2.5 1.2 0-.1-3 6.7-1.3 6.7-3.2 0-1.8-3.8-.6-6.4-1.2.6-3.1 4.3-1.5 5-.8 1.1-3.5 2.6-4.8 1.5-1.1-1-.5-2.3-.5-3.6m-4 2.8c-5.7 0-1.9-8.6 0-8.1 2.3.7 2 8.2 0 8.1m-6.3-8.2c-2.7-.1-1.6-2.6.3-3.1 1.7-.5 5.2 1.1 6.5 2.2-1.9.6-4.2.5-6.2.6-.2-2-.7-1.3-.6.3"/><path fill="#f49774" d="M72.8 25.8c-2.9-3 4.4-2.7 5.6-3.8.8.3 7.1-5.4 8.6-5-1 1.3-3.4 5.3-5 5.3-1.3 0-2.7-.2-3.7.7-1.5 1.4-4 2.1-5.5 2.8"/><path fill="#f4b1a4" d="M73.8 22.2c-1.7.9-3.2-2.5-.4-2.2 1.9.2 3.8-.2 5.5.1a6 6 0 0 1-5.1 2.1"/><path fill="#fff" d="M51.8 20.9q.5.5.5 1.4c0 .4-.6 1-.2 1.2l1.6-1.8c-.4-.1-3.6-3.8-3.6-4.2L48 18.6c0 .4.8 0 1.2 0q.8.1 1.3.7c-1 .9-3.8 3.3-4.1 3.3-.1 0-.7-.4-.7 0 0 .2.6.7.7.8l1.4 1.7c.4-.2-.1-.5 0-.8zm-3.4-4.5c.3-.1.4.3.6 0l-1.6-1.9c-.2-.3-.5-.6-.5 0 0 .4-4 3.7-4.3 3.8s-.5-.3-.7.1l1.4 1.7.5.6c.2.2.1-.4.1-.4q0-.5.6-.8c1-1 3.6-3.1 3.9-3.1m-5.8-.6c-1.1.3-2.4-.1-2.7-1.3s.4-2.4 1.3-3.1 2.3-.6 2.8.5q.2.8 0 1.6c-.2.3-.5.6 0 .8q.7-1 1.7-2.1c-.8-.4-1-1.1-1.6-1.7q-.8-1.2-2.3-1.5c-2-.3-3.7 1.7-3.9 3.4q0 1.4.9 2.6.9.8 1.6 1.8c.2.1 1.8-.7 2.1-.8q.2 0 .1-.2s-.5.2 0 0m25.9 23.6c-.7-.5-2.7-3-3-3.5l-.3-.3-.2.1v.6c-.5.8-3.7 3.2-4 3.4s-.7-.1-1 .2l2 2.3c.4 0 .2-.5.2-.6 0-.2 1.7-1.6 2.3-2.1.2-.2.4.3.6.5q.3.5.2 1c0 .2-.5.6-.2.8l1.8-2c.2-.2-.5 0-.3-.1q-.5.2-.8 0s-.7-.7-.6-.8q.4-.4 1-.7c.7-.1 1 1 1.2 1.4l-.1 1.1q-.3.5 0 .6l1.4-1.9q0 .1-.2 0M59 30.5q-1 0-2 .8a3.5 3.5 0 0 0-.5 4.8c1.3 1.7 3.5 1.9 5.2.7a3.5 3.5 0 0 0 .5-4.8Q61 30.5 59 30.5m1.3 1.4c.9-.1 1.5.8 1 1.8q-.6 1.6-2.4 2.4c-1.2.5-2-.5-1.5-1.7q.7-1.7 2.5-2.4zm-2.9-4.6c.3 0 .6.4.8 0L57 25.6c-.4.2 0 .4 0 .6-.3.3-1.8.5-2.2.6l.8-1.8c.4-.3.6.3.8-.1l-1.8-2.1c-.2-.2-.4-.7-.6-.4l-.1 1.1c-.1.2-.6 2.4-1.2 2.9l-1.9 1.4c-.3.1-.5-.4-.8 0l1.6 1.9.5.6c.3.1 0-.6.1-.7.1-.3 1.7-1.8 2.4-1.9q1.4-.4 3-.4c.2 0-.2 0 0 0M82.1 34q.2.6 0 1.3c0 .6-.5 1.9-1.3 1.5q-1.2-.7-2.2-1.7.6-1 2-.8.4.1.2-.2c-.4-.2-2-1.3-2.2-1.2s.3.6.1 1q-.2.4-.6.8c-.5-.4-1.2-.8-.7-1.5q.5-.7 1.4-.9c.4-.1 1.2.3 1.3-.1l-2-1c0 .5-2.3 2.9-2.8 3.5l-.4.5q.2.3.4.1c.3-.1 4.4 3.3 4.5 3.6v.5l.2.1c.3-.3 3-3.9 3.6-4L82 33.1c-.4.2-.1.7 0 .9m-4 4.4c-1.4-.9-3.7.8-4.1 1-.8.3-1.3-.4-.9-1q.6-.8 1.6-.8h.9v-.2l-1.7-1.1c-.1.7-1 1.1-1.4 1.6q-.9 1-1 2 0 1.1 1.1 1.7t2.3-.3l1.2-.8c.6-.3 1.5 0 1.3.8q-.5 1.1-1.6 1.5-.6.2-1.2-.1c-.3-.1-.6-.5-.8-.1l2.3 1.6q0-.6.7-1 .8-.6 1.3-1.4c.8-.9 1.1-2.5 0-3.4m17.8-28.1q0 .2 0 0l-1 1-.8 1q-.4.3 0 .5c.6-.3 3.6 4.8 3.4 5.5-.5.2-4.6-3.3-4.7-3.5 0-.1.2-.7 0-.6s-.6.6-.7.7l-.6.7c.2.3.3 0 .6 0l1.5 1.1-1.9.1c-.6.1-.3-.4-.7-.6L89.5 18l-1 1v.1c.3.2.2.1.5 0a29 29 0 0 1 4.4 3.4c.2.3 0 .6.3.8l1.3-1.4v-.1q-.3-.1-.8.1c-.3-.1-2.9-2.2-3.8-3l5.4-.2c.2 0 .7.6.7.8q-.3.3 0 .5l.9-1.1v-.2q.2 0 .2-.2l.1-.1c.3-.3 1.2-1.3 1.1-1.4-.3-.3-.4.3-.8 0l-1-1.4c-.1-.3.5-.6.7-.7.5-.3 2.1-.8 2.3.2q-.2.3 0 .5 0 .1.1.1l2.2-2.6-.2-.2c-.5.5-5.6-1.5-6-1.8 0-.2 0-.8-.2-.8m-.2 2.6 2.3 1-.6.3-.6.5zM89 20.6q-1.8-.1-3 1.3c-1.3 1.5-1.2 3.7.3 4.9 1.6 1.2 3.8.9 5-.5 1.2-1.5 1.1-3.7-.4-4.9q-.8-.6-2-.8m-1.4 1.6q1 .1 1.7.7c.8.5 2.2 1.7 1.5 2.7l-.1.1c-.8.8-2.2.1-3-.5s-2-1.7-1.2-2.7q.4-.3 1-.3m-3.2 4.3a4 4 0 0 0-3.3 1.6l-2 2.3c.2.3.5-.1.8.1s4.2 3.3 4.2 3.5c.1.3-.2.4.1.6.1.1 3-3.4 3.2-4a3 3 0 0 0-.8-3.2q.2.2 0 0-1.2-.9-2.2-.9m-1.1 1.6h.3c1.4.4 3.4 2.1 2.1 3.6l-.4.4c-.2.2-4.2-3-4-3.2q.8-.9 2-.8"/></g><defs><clipPath id="a"><path fill="#fff" d="M0 0h140v70H0z"/></clipPath></defs></svg>