<svg xmlns="http://www.w3.org/2000/svg" width="75" height="70" fill="none" viewBox="0 0 75 70"><path fill="#83b3d3" d="M70.6 46.7h-66A4 4 0 0 0 .5 51v3.5c0 2.4 1.9 4.3 4.1 4.3h1v1.1A10 10 0 0 0 15 70h44.7c5.4 0 9.7-4.5 9.7-10.1v-1.1h.9c2.3 0 4-1.9 4-4.3V51a4 4 0 0 0-3.8-4.3m-4 13.2c0 3.9-3 7-6.7 7H15.1a7 7 0 0 1-6.7-7v-1.1h58.3zm5.2-5.4q-.1 1.2-1.2 1.3h-66q-1.2-.1-1.3-1.3V51q.1-1.2 1.2-1.3h66q1.1.1 1.2 1.3zM16.1 38.4l5.5 4.1 5.3-4.1 5.3 4.1 5.3-4.1 5.4 4.1 5.3-4.1 5.3 4.1 5.4-4.1 5.4 4.1 6.2-4.7-1.7-2.5-4.5 3.4-5.4-4.1-5.4 4.1-5.3-4.1-5.3 4.1-5.4-4.1-5.3 4.1-5.3-4.1-5.3 4.1-5.5-4.1-5.3 4.1-4.5-3.4-1.7 2.5 6.2 4.7zM8.5 31.5h61v-3.1C69 12.7 54.9 0 37.6 0S6.3 12.7 5.6 28.5v1.2l.1 1.8zM37.5 3c15.7 0 28.6 11.3 29.2 25.5H8.5C9.1 14.4 22 3 37.5 3"/><path fill="#83b3d3" d="M37.6 17.3a2 2 0 0 0 1.9-2 2 2 0 0 0-2-2 2 2 0 0 0-1.8 2q.1 1.8 1.9 2M29.8 12.2a2 2 0 0 0 1.9-2 2 2 0 0 0-2-2 2 2 0 0 0-1.8 2q.1 1.8 1.9 2M45.3 12.2a2 2 0 0 0 2-2 2 2 0 0 0-2-2 2 2 0 0 0-1.9 2q.2 1.8 2 2"/></svg>