<svg xmlns="http://www.w3.org/2000/svg" width="76" height="72" fill="none" viewBox="0 0 76 72"><path fill="#83b3d3" d="M30.1 65h16V41.2h-16zm3-20.9h10v18h-10z"/><path fill="#83b3d3" d="m73.4 39.3 2.1-2.1-10-9.9V0H51.7v13.6L37.9 0 .5 37.2l2.1 2.1 7.8-7.8v37.6h-4V72h64.2v-2.9h-5.1V31.5zM62.5 69.1H13.4V28.5L37.9 4.1l24.6 24.4zm0-44.7-7.9-7.9V2.9h8z"/><path fill="#83b3d3" d="M30.3 27.1c0 4.3 3.5 7.7 7.8 7.7s7.8-3.5 7.8-7.7-3.5-7.7-7.8-7.7a7.7 7.7 0 0 0-7.8 7.7m7.9-5a5 5 0 0 1 5 4.9 5 5 0 0 1-5 4.9 5 5 0 0 1-5-4.9 5 5 0 0 1 5-4.9M20.5 41.2h-3v3.9h3zM26.4 41.2h-3v3.9h3zM20.5 47.2h-3v3.9h3zM26.4 47.2h-3v3.9h3zM52.5 41.2h-3v3.9h3zM58.4 41.2h-3v3.9h3zM52.5 47.2h-3v3.9h3zM58.4 47.2h-3v3.9h3z"/></svg>