<svg xmlns="http://www.w3.org/2000/svg" width="25" height="15" fill="none" viewBox="0 0 25 15"><path fill="#83b3d3" fill-rule="evenodd" d="M24.1 1.8q.3-.9-.8-1h-2.6q-1 .1-1.1.8s-1.4 3.2-3.3 5.3q-.8.8-1.2.8t-.4-.8V1.8q0-1-.8-1h-4Q9 1 9 1.5c0 .7 1 .8 1 2.6v3.8q.1 1.1-.4 1c-.9 0-3-3.3-4.3-7Q5 .9 4.2.9H1.6q-1.1.1-1 .8c0 .7 1 4 4.2 8.5C7 13.2 10 15 12.8 15c1.7 0 1.9-.4 1.9-1v-2.4q0-1 .7-.8c.4 0 1 .1 2.6 1.6 1.8 1.8 2 2.6 3 2.6h2.7q1.1 0 1-1.1-.5-1.2-2.3-3c-.6-.8-1.5-1.5-1.8-2q-.5-.5 0-1s3.2-4.5 3.5-6" clip-rule="evenodd"/></svg>